<svg xmlns="http://www.w3.org/2000/svg" width="319.77" height="248.468" viewBox="0 0 319.77 248.468"><path d="M0,299.469V51H319.77c-.046,2.321-.153,6.065-.4,10.722-.393,7.566-1.237,19.225-3.02,31.8a210.061,210.061,0,0,1-8.2,36.73c-4.293,12.812-9.663,22.35-15.962,28.349-12.838,12.227-23.953,17.908-34.7,23.4-12.461,6.37-24.231,12.386-37.607,27.872a240.094,240.094,0,0,1-18.961,19.844,135.2,135.2,0,0,1-20.317,15.654A103.308,103.308,0,0,1,157.58,256.1a106.516,106.516,0,0,1-12.955,3.281,119.943,119.943,0,0,1-14.142,1.772c-9.968.665-21.677,1.911-32.968,3.509-13.931,1.97-27.013,4.408-38.881,7.246-14.09,3.368-26.06,7.22-35.578,11.448C12.037,288.247,4.28,293.669,0,299.467Z" transform="translate(0 -51)" fill="#3eabf0"/></svg>